<svg width="67" height="67" viewBox="0 0 67 67" fill="none" xmlns="http://www.w3.org/2000/svg">
<mask id="path-1-outside-1_140_417" maskUnits="userSpaceOnUse" x="0.000244141" y="4.55444" width="67" height="61" fill="black">
<rect fill="white" x="0.000244141" y="4.55444" width="67" height="61"/>
<path d="M60.2665 18.5071C60.4125 18.7418 60.7205 18.8129 60.955 18.6677C61.1904 18.5217 61.2617 18.2131 61.1161 17.9788C60.497 16.9841 59.8144 16.0081 59.0868 15.0784C58.9159 14.8601 58.6025 14.823 58.3847 14.9929C58.1679 15.1628 58.1298 15.4773 58.2997 15.6946C59.0048 16.5964 59.6669 17.5427 60.2665 18.5071ZM63.3066 22.1467C63.1962 21.8933 62.9023 21.7795 62.6484 21.8879C62.3954 21.9983 62.2802 22.2932 62.3906 22.5461C64.122 26.5168 64.9999 30.7376 64.9999 35.0916C64.9999 39.3982 64.1396 43.5798 62.4423 47.5203C62.3329 47.7737 62.4501 48.0681 62.7031 48.177C62.956 48.2863 63.2513 48.1699 63.3603 47.9158C65.1122 43.8499 65.9999 39.5349 65.9999 35.0916C65.9999 30.5994 65.0937 26.2439 63.3066 22.1467ZM3.33488 44.4158C3.25334 44.1526 2.97795 44.0071 2.7089 44.0867C2.44523 44.1687 2.29777 44.4485 2.3798 44.7127C4.16056 50.449 7.50773 55.5877 12.06 59.573C12.2678 59.7553 12.5841 59.7341 12.7656 59.5266C12.9477 59.3186 12.9267 59.0027 12.7192 58.821C8.30559 54.9568 5.06047 49.9758 3.33488 44.4158ZM2.48332 41.0046C2.24699 39.7644 2.08439 38.4954 1.99943 37.2322C1.98088 36.9568 1.76164 36.76 1.46672 36.7668C1.19133 36.7854 0.982833 37.0237 1.00139 37.2996C1.08928 38.6028 1.25725 39.9123 1.5009 41.1921C1.55157 41.4563 1.80593 41.6413 2.08586 41.5896C2.35686 41.5378 2.53508 41.2761 2.48332 41.0046ZM53.1386 14.4663C53.1386 14.358 53.1386 10.1206 53.1386 10.3899C53.1386 7.72339 50.9648 5.55444 48.2929 5.55444H19.6264C16.9545 5.55444 14.7807 7.72339 14.7807 10.3899C14.7807 10.4926 14.7807 13.6773 14.7807 13.5602C13.1034 15.0174 11.6013 16.6666 10.3008 18.4734H4.72453C4.44816 18.4734 4.22453 18.697 4.22453 18.9734V27.5139C4.22453 27.7903 4.44816 28.0139 4.72453 28.0139H5.83275C5.25035 30.2796 4.92327 32.6466 4.92327 35.0916C4.92327 43.6855 8.75024 51.3957 14.7807 56.6307V59.7937C14.7807 62.4602 16.9545 64.6291 19.6264 64.6291H48.2929C50.9648 64.6291 53.1386 62.4602 53.1386 59.7937C53.1386 59.6071 53.1386 55.6049 53.1386 55.717C58.5878 50.518 61.9951 43.1981 61.9951 35.0915C61.995 26.9852 58.5878 19.6653 53.1386 14.4663ZM41.5673 41.6023V29.5935H56.7128V41.6023L41.5673 41.6023ZM41.0673 28.5935C40.7909 28.5935 40.5673 28.8171 40.5673 29.0935V42.1023C40.5673 42.3787 40.7909 42.6023 41.0673 42.6023H52.1386V55.9675H15.7807V48.9327C16.0016 49.0221 16.2251 49.104 16.453 49.1707L16.7631 50.7864C16.8085 51.0217 17.0146 51.1921 17.2543 51.1921H19.7362C19.976 51.1921 20.182 51.0217 20.2275 50.7859L20.537 49.1672C21.0443 49.0222 21.537 48.8186 22.0072 48.5593L23.3686 49.4846C23.5678 49.6204 23.8344 49.595 24.0033 49.4246L25.7587 47.6692C25.9286 47.4998 25.9535 47.2332 25.8188 47.0349L24.894 45.6731C25.1513 45.2053 25.3559 44.7131 25.5053 44.2029L27.1156 43.8933C27.351 43.8479 27.5209 43.6418 27.5209 43.4021V40.9202C27.5209 40.6799 27.35 40.4734 27.1137 40.429L25.5014 40.1243C25.3559 39.617 25.1528 39.1248 24.894 38.6545L25.8188 37.2937C25.9535 37.095 25.9286 36.8284 25.7587 36.6589L24.0033 34.9036C23.8334 34.7336 23.5673 34.7087 23.3691 34.8435L22.0077 35.7683C21.537 35.509 21.0443 35.3054 20.537 35.1604L20.2275 33.5417C20.182 33.3064 19.976 33.136 19.7362 33.136H17.2543C17.0146 33.136 16.8085 33.3064 16.7631 33.5417L16.453 35.157C16.2251 35.2236 16.0016 35.3055 15.7807 35.3949V28.0139H33.4594C33.7358 28.0139 33.9594 27.7903 33.9594 27.5139V18.9734C33.9594 18.697 33.7358 18.4734 33.4594 18.4734H15.7807V12.9568H52.1386V28.5935H41.0673ZM13.1196 45.4338C12.7787 44.8748 12.5317 44.2766 12.3857 43.6565C12.3403 43.4646 12.1864 43.3171 11.9926 43.28L10.4701 42.9885V41.3338L11.9926 41.0423C12.1864 41.0051 12.3403 40.8577 12.3857 40.6658C12.5302 40.0515 12.7773 39.4553 13.1196 38.8938C13.2216 38.7263 13.2167 38.5149 13.1064 38.3523L12.2372 37.0735L13.4076 35.9031L14.6869 36.7718C14.8491 36.8821 15.0605 36.8875 15.228 36.7849C15.7861 36.4451 16.3832 36.1956 17.0034 36.0447C17.1938 35.9983 17.3393 35.8455 17.3764 35.6531L17.6674 34.136H19.3227L19.6142 35.6585C19.6513 35.8518 19.7988 36.0056 19.9907 36.0511C20.6108 36.1971 21.2089 36.4441 21.7685 36.7849C21.9365 36.8875 22.1479 36.8821 22.3095 36.7718L23.5888 35.9031L24.7592 37.0735L23.8901 38.3523C23.7797 38.5149 23.7748 38.7264 23.8769 38.8938C24.2177 39.4529 24.4648 40.0511 24.6108 40.6717C24.6562 40.864 24.8105 41.0115 25.0048 41.0481L26.5209 41.3347V42.989L25.0087 43.2801C24.8168 43.3172 24.664 43.4627 24.6176 43.6526C24.4648 44.2796 24.2153 44.8787 23.8769 45.4339C23.7748 45.6014 23.7797 45.8128 23.8901 45.9749L24.7592 47.2547L23.5888 48.4251L22.31 47.5559C22.1469 47.4456 21.9364 47.4402 21.7685 47.5427C21.2089 47.8836 20.6108 48.1306 19.9907 48.2766C19.7988 48.322 19.6513 48.4758 19.6142 48.6697L19.3227 50.1922H17.6674L17.3764 48.6746C17.3393 48.4822 17.1938 48.3294 17.0034 48.283C16.3832 48.1321 15.7861 47.8826 15.228 47.5427C15.0615 47.4417 14.85 47.4461 14.6865 47.5559L13.4077 48.4251L12.2372 47.2547L13.1064 45.9749C13.2167 45.8127 13.2216 45.6013 13.1196 45.4338ZM15.7807 10.3899C15.7807 8.27514 17.5058 6.55444 19.6264 6.55444H48.2929C50.413 6.55444 52.1386 8.27514 52.1386 10.3899V11.9568H15.7807V10.3899ZM14.7807 14.9009V18.4734H11.5442C12.5192 17.1905 13.6005 15.9944 14.7807 14.9009ZM5.22453 19.4734H32.9594V27.0139H5.22453V19.4734ZM5.92326 35.0916C5.92326 32.6428 6.26121 30.2747 6.86497 28.0139H14.7807V35.6266L13.6274 34.8435C13.4291 34.7092 13.1635 34.7337 12.9931 34.9036L11.2377 36.6589C11.0678 36.8284 11.0429 37.095 11.1777 37.2937L12.1025 38.6546C11.8432 39.1253 11.6396 39.6155 11.495 40.1194L9.87638 40.429C9.64054 40.4744 9.47013 40.6804 9.47013 40.9202V43.4021C9.47013 43.6418 9.64054 43.8479 9.87638 43.8933L11.495 44.2029C11.6401 44.7107 11.8437 45.2029 12.1025 45.6731L11.1777 47.0349C11.0429 47.2332 11.0678 47.4998 11.2377 47.6692L12.9931 49.4246C13.1635 49.5945 13.4296 49.6199 13.6279 49.4846L14.7807 48.7012V55.2827C9.34288 50.2504 5.92326 43.0674 5.92326 35.0916ZM52.1386 59.7937C52.1386 61.9085 50.413 63.6292 48.2929 63.6292H19.6264C17.5058 63.6292 15.7807 61.9085 15.7807 59.7937V56.9675H52.1386V59.7937ZM53.1386 54.3085V42.6023H57.2128C57.4892 42.6023 57.7128 42.3787 57.7128 42.1023V29.0935C57.7128 28.8171 57.4892 28.5935 57.2128 28.5935H53.1386V15.8773C57.9907 20.8424 60.9951 27.619 60.9951 35.0916C60.995 42.5649 57.9913 49.343 53.1386 54.3085Z"/>
</mask>
<path d="M60.2665 18.5071C60.4125 18.7418 60.7205 18.8129 60.955 18.6677C61.1904 18.5217 61.2617 18.2131 61.1161 17.9788C60.497 16.9841 59.8144 16.0081 59.0868 15.0784C58.9159 14.8601 58.6025 14.823 58.3847 14.9929C58.1679 15.1628 58.1298 15.4773 58.2997 15.6946C59.0048 16.5964 59.6669 17.5427 60.2665 18.5071ZM63.3066 22.1467C63.1962 21.8933 62.9023 21.7795 62.6484 21.8879C62.3954 21.9983 62.2802 22.2932 62.3906 22.5461C64.122 26.5168 64.9999 30.7376 64.9999 35.0916C64.9999 39.3982 64.1396 43.5798 62.4423 47.5203C62.3329 47.7737 62.4501 48.0681 62.7031 48.177C62.956 48.2863 63.2513 48.1699 63.3603 47.9158C65.1122 43.8499 65.9999 39.5349 65.9999 35.0916C65.9999 30.5994 65.0937 26.2439 63.3066 22.1467ZM3.33488 44.4158C3.25334 44.1526 2.97795 44.0071 2.7089 44.0867C2.44523 44.1687 2.29777 44.4485 2.3798 44.7127C4.16056 50.449 7.50773 55.5877 12.06 59.573C12.2678 59.7553 12.5841 59.7341 12.7656 59.5266C12.9477 59.3186 12.9267 59.0027 12.7192 58.821C8.30559 54.9568 5.06047 49.9758 3.33488 44.4158ZM2.48332 41.0046C2.24699 39.7644 2.08439 38.4954 1.99943 37.2322C1.98088 36.9568 1.76164 36.76 1.46672 36.7668C1.19133 36.7854 0.982833 37.0237 1.00139 37.2996C1.08928 38.6028 1.25725 39.9123 1.5009 41.1921C1.55157 41.4563 1.80593 41.6413 2.08586 41.5896C2.35686 41.5378 2.53508 41.2761 2.48332 41.0046ZM53.1386 14.4663C53.1386 14.358 53.1386 10.1206 53.1386 10.3899C53.1386 7.72339 50.9648 5.55444 48.2929 5.55444H19.6264C16.9545 5.55444 14.7807 7.72339 14.7807 10.3899C14.7807 10.4926 14.7807 13.6773 14.7807 13.5602C13.1034 15.0174 11.6013 16.6666 10.3008 18.4734H4.72453C4.44816 18.4734 4.22453 18.697 4.22453 18.9734V27.5139C4.22453 27.7903 4.44816 28.0139 4.72453 28.0139H5.83275C5.25035 30.2796 4.92327 32.6466 4.92327 35.0916C4.92327 43.6855 8.75024 51.3957 14.7807 56.6307V59.7937C14.7807 62.4602 16.9545 64.6291 19.6264 64.6291H48.2929C50.9648 64.6291 53.1386 62.4602 53.1386 59.7937C53.1386 59.6071 53.1386 55.6049 53.1386 55.717C58.5878 50.518 61.9951 43.1981 61.9951 35.0915C61.995 26.9852 58.5878 19.6653 53.1386 14.4663ZM41.5673 41.6023V29.5935H56.7128V41.6023L41.5673 41.6023ZM41.0673 28.5935C40.7909 28.5935 40.5673 28.8171 40.5673 29.0935V42.1023C40.5673 42.3787 40.7909 42.6023 41.0673 42.6023H52.1386V55.9675H15.7807V48.9327C16.0016 49.0221 16.2251 49.104 16.453 49.1707L16.7631 50.7864C16.8085 51.0217 17.0146 51.1921 17.2543 51.1921H19.7362C19.976 51.1921 20.182 51.0217 20.2275 50.7859L20.537 49.1672C21.0443 49.0222 21.537 48.8186 22.0072 48.5593L23.3686 49.4846C23.5678 49.6204 23.8344 49.595 24.0033 49.4246L25.7587 47.6692C25.9286 47.4998 25.9535 47.2332 25.8188 47.0349L24.894 45.6731C25.1513 45.2053 25.3559 44.7131 25.5053 44.2029L27.1156 43.8933C27.351 43.8479 27.5209 43.6418 27.5209 43.4021V40.9202C27.5209 40.6799 27.35 40.4734 27.1137 40.429L25.5014 40.1243C25.3559 39.617 25.1528 39.1248 24.894 38.6545L25.8188 37.2937C25.9535 37.095 25.9286 36.8284 25.7587 36.6589L24.0033 34.9036C23.8334 34.7336 23.5673 34.7087 23.3691 34.8435L22.0077 35.7683C21.537 35.509 21.0443 35.3054 20.537 35.1604L20.2275 33.5417C20.182 33.3064 19.976 33.136 19.7362 33.136H17.2543C17.0146 33.136 16.8085 33.3064 16.7631 33.5417L16.453 35.157C16.2251 35.2236 16.0016 35.3055 15.7807 35.3949V28.0139H33.4594C33.7358 28.0139 33.9594 27.7903 33.9594 27.5139V18.9734C33.9594 18.697 33.7358 18.4734 33.4594 18.4734H15.7807V12.9568H52.1386V28.5935H41.0673ZM13.1196 45.4338C12.7787 44.8748 12.5317 44.2766 12.3857 43.6565C12.3403 43.4646 12.1864 43.3171 11.9926 43.28L10.4701 42.9885V41.3338L11.9926 41.0423C12.1864 41.0051 12.3403 40.8577 12.3857 40.6658C12.5302 40.0515 12.7773 39.4553 13.1196 38.8938C13.2216 38.7263 13.2167 38.5149 13.1064 38.3523L12.2372 37.0735L13.4076 35.9031L14.6869 36.7718C14.8491 36.8821 15.0605 36.8875 15.228 36.7849C15.7861 36.4451 16.3832 36.1956 17.0034 36.0447C17.1938 35.9983 17.3393 35.8455 17.3764 35.6531L17.6674 34.136H19.3227L19.6142 35.6585C19.6513 35.8518 19.7988 36.0056 19.9907 36.0511C20.6108 36.1971 21.2089 36.4441 21.7685 36.7849C21.9365 36.8875 22.1479 36.8821 22.3095 36.7718L23.5888 35.9031L24.7592 37.0735L23.8901 38.3523C23.7797 38.5149 23.7748 38.7264 23.8769 38.8938C24.2177 39.4529 24.4648 40.0511 24.6108 40.6717C24.6562 40.864 24.8105 41.0115 25.0048 41.0481L26.5209 41.3347V42.989L25.0087 43.2801C24.8168 43.3172 24.664 43.4627 24.6176 43.6526C24.4648 44.2796 24.2153 44.8787 23.8769 45.4339C23.7748 45.6014 23.7797 45.8128 23.8901 45.9749L24.7592 47.2547L23.5888 48.4251L22.31 47.5559C22.1469 47.4456 21.9364 47.4402 21.7685 47.5427C21.2089 47.8836 20.6108 48.1306 19.9907 48.2766C19.7988 48.322 19.6513 48.4758 19.6142 48.6697L19.3227 50.1922H17.6674L17.3764 48.6746C17.3393 48.4822 17.1938 48.3294 17.0034 48.283C16.3832 48.1321 15.7861 47.8826 15.228 47.5427C15.0615 47.4417 14.85 47.4461 14.6865 47.5559L13.4077 48.4251L12.2372 47.2547L13.1064 45.9749C13.2167 45.8127 13.2216 45.6013 13.1196 45.4338ZM15.7807 10.3899C15.7807 8.27514 17.5058 6.55444 19.6264 6.55444H48.2929C50.413 6.55444 52.1386 8.27514 52.1386 10.3899V11.9568H15.7807V10.3899ZM14.7807 14.9009V18.4734H11.5442C12.5192 17.1905 13.6005 15.9944 14.7807 14.9009ZM5.22453 19.4734H32.9594V27.0139H5.22453V19.4734ZM5.92326 35.0916C5.92326 32.6428 6.26121 30.2747 6.86497 28.0139H14.7807V35.6266L13.6274 34.8435C13.4291 34.7092 13.1635 34.7337 12.9931 34.9036L11.2377 36.6589C11.0678 36.8284 11.0429 37.095 11.1777 37.2937L12.1025 38.6546C11.8432 39.1253 11.6396 39.6155 11.495 40.1194L9.87638 40.429C9.64054 40.4744 9.47013 40.6804 9.47013 40.9202V43.4021C9.47013 43.6418 9.64054 43.8479 9.87638 43.8933L11.495 44.2029C11.6401 44.7107 11.8437 45.2029 12.1025 45.6731L11.1777 47.0349C11.0429 47.2332 11.0678 47.4998 11.2377 47.6692L12.9931 49.4246C13.1635 49.5945 13.4296 49.6199 13.6279 49.4846L14.7807 48.7012V55.2827C9.34288 50.2504 5.92326 43.0674 5.92326 35.0916ZM52.1386 59.7937C52.1386 61.9085 50.413 63.6292 48.2929 63.6292H19.6264C17.5058 63.6292 15.7807 61.9085 15.7807 59.7937V56.9675H52.1386V59.7937ZM53.1386 54.3085V42.6023H57.2128C57.4892 42.6023 57.7128 42.3787 57.7128 42.1023V29.0935C57.7128 28.8171 57.4892 28.5935 57.2128 28.5935H53.1386V15.8773C57.9907 20.8424 60.9951 27.619 60.9951 35.0916C60.995 42.5649 57.9913 49.343 53.1386 54.3085Z" fill="#1E120B"/>
<path d="M60.2665 18.5071C60.4125 18.7418 60.7205 18.8129 60.955 18.6677C61.1904 18.5217 61.2617 18.2131 61.1161 17.9788C60.497 16.9841 59.8144 16.0081 59.0868 15.0784C58.9159 14.8601 58.6025 14.823 58.3847 14.9929C58.1679 15.1628 58.1298 15.4773 58.2997 15.6946C59.0048 16.5964 59.6669 17.5427 60.2665 18.5071ZM63.3066 22.1467C63.1962 21.8933 62.9023 21.7795 62.6484 21.8879C62.3954 21.9983 62.2802 22.2932 62.3906 22.5461C64.122 26.5168 64.9999 30.7376 64.9999 35.0916C64.9999 39.3982 64.1396 43.5798 62.4423 47.5203C62.3329 47.7737 62.4501 48.0681 62.7031 48.177C62.956 48.2863 63.2513 48.1699 63.3603 47.9158C65.1122 43.8499 65.9999 39.5349 65.9999 35.0916C65.9999 30.5994 65.0937 26.2439 63.3066 22.1467ZM3.33488 44.4158C3.25334 44.1526 2.97795 44.0071 2.7089 44.0867C2.44523 44.1687 2.29777 44.4485 2.3798 44.7127C4.16056 50.449 7.50773 55.5877 12.06 59.573C12.2678 59.7553 12.5841 59.7341 12.7656 59.5266C12.9477 59.3186 12.9267 59.0027 12.7192 58.821C8.30559 54.9568 5.06047 49.9758 3.33488 44.4158ZM2.48332 41.0046C2.24699 39.7644 2.08439 38.4954 1.99943 37.2322C1.98088 36.9568 1.76164 36.76 1.46672 36.7668C1.19133 36.7854 0.982833 37.0237 1.00139 37.2996C1.08928 38.6028 1.25725 39.9123 1.5009 41.1921C1.55157 41.4563 1.80593 41.6413 2.08586 41.5896C2.35686 41.5378 2.53508 41.2761 2.48332 41.0046ZM53.1386 14.4663C53.1386 14.358 53.1386 10.1206 53.1386 10.3899C53.1386 7.72339 50.9648 5.55444 48.2929 5.55444H19.6264C16.9545 5.55444 14.7807 7.72339 14.7807 10.3899C14.7807 10.4926 14.7807 13.6773 14.7807 13.5602C13.1034 15.0174 11.6013 16.6666 10.3008 18.4734H4.72453C4.44816 18.4734 4.22453 18.697 4.22453 18.9734V27.5139C4.22453 27.7903 4.44816 28.0139 4.72453 28.0139H5.83275C5.25035 30.2796 4.92327 32.6466 4.92327 35.0916C4.92327 43.6855 8.75024 51.3957 14.7807 56.6307V59.7937C14.7807 62.4602 16.9545 64.6291 19.6264 64.6291H48.2929C50.9648 64.6291 53.1386 62.4602 53.1386 59.7937C53.1386 59.6071 53.1386 55.6049 53.1386 55.717C58.5878 50.518 61.9951 43.1981 61.9951 35.0915C61.995 26.9852 58.5878 19.6653 53.1386 14.4663ZM41.5673 41.6023V29.5935H56.7128V41.6023L41.5673 41.6023ZM41.0673 28.5935C40.7909 28.5935 40.5673 28.8171 40.5673 29.0935V42.1023C40.5673 42.3787 40.7909 42.6023 41.0673 42.6023H52.1386V55.9675H15.7807V48.9327C16.0016 49.0221 16.2251 49.104 16.453 49.1707L16.7631 50.7864C16.8085 51.0217 17.0146 51.1921 17.2543 51.1921H19.7362C19.976 51.1921 20.182 51.0217 20.2275 50.7859L20.537 49.1672C21.0443 49.0222 21.537 48.8186 22.0072 48.5593L23.3686 49.4846C23.5678 49.6204 23.8344 49.595 24.0033 49.4246L25.7587 47.6692C25.9286 47.4998 25.9535 47.2332 25.8188 47.0349L24.894 45.6731C25.1513 45.2053 25.3559 44.7131 25.5053 44.2029L27.1156 43.8933C27.351 43.8479 27.5209 43.6418 27.5209 43.4021V40.9202C27.5209 40.6799 27.35 40.4734 27.1137 40.429L25.5014 40.1243C25.3559 39.617 25.1528 39.1248 24.894 38.6545L25.8188 37.2937C25.9535 37.095 25.9286 36.8284 25.7587 36.6589L24.0033 34.9036C23.8334 34.7336 23.5673 34.7087 23.3691 34.8435L22.0077 35.7683C21.537 35.509 21.0443 35.3054 20.537 35.1604L20.2275 33.5417C20.182 33.3064 19.976 33.136 19.7362 33.136H17.2543C17.0146 33.136 16.8085 33.3064 16.7631 33.5417L16.453 35.157C16.2251 35.2236 16.0016 35.3055 15.7807 35.3949V28.0139H33.4594C33.7358 28.0139 33.9594 27.7903 33.9594 27.5139V18.9734C33.9594 18.697 33.7358 18.4734 33.4594 18.4734H15.7807V12.9568H52.1386V28.5935H41.0673ZM13.1196 45.4338C12.7787 44.8748 12.5317 44.2766 12.3857 43.6565C12.3403 43.4646 12.1864 43.3171 11.9926 43.28L10.4701 42.9885V41.3338L11.9926 41.0423C12.1864 41.0051 12.3403 40.8577 12.3857 40.6658C12.5302 40.0515 12.7773 39.4553 13.1196 38.8938C13.2216 38.7263 13.2167 38.5149 13.1064 38.3523L12.2372 37.0735L13.4076 35.9031L14.6869 36.7718C14.8491 36.8821 15.0605 36.8875 15.228 36.7849C15.7861 36.4451 16.3832 36.1956 17.0034 36.0447C17.1938 35.9983 17.3393 35.8455 17.3764 35.6531L17.6674 34.136H19.3227L19.6142 35.6585C19.6513 35.8518 19.7988 36.0056 19.9907 36.0511C20.6108 36.1971 21.2089 36.4441 21.7685 36.7849C21.9365 36.8875 22.1479 36.8821 22.3095 36.7718L23.5888 35.9031L24.7592 37.0735L23.8901 38.3523C23.7797 38.5149 23.7748 38.7264 23.8769 38.8938C24.2177 39.4529 24.4648 40.0511 24.6108 40.6717C24.6562 40.864 24.8105 41.0115 25.0048 41.0481L26.5209 41.3347V42.989L25.0087 43.2801C24.8168 43.3172 24.664 43.4627 24.6176 43.6526C24.4648 44.2796 24.2153 44.8787 23.8769 45.4339C23.7748 45.6014 23.7797 45.8128 23.8901 45.9749L24.7592 47.2547L23.5888 48.4251L22.31 47.5559C22.1469 47.4456 21.9364 47.4402 21.7685 47.5427C21.2089 47.8836 20.6108 48.1306 19.9907 48.2766C19.7988 48.322 19.6513 48.4758 19.6142 48.6697L19.3227 50.1922H17.6674L17.3764 48.6746C17.3393 48.4822 17.1938 48.3294 17.0034 48.283C16.3832 48.1321 15.7861 47.8826 15.228 47.5427C15.0615 47.4417 14.85 47.4461 14.6865 47.5559L13.4077 48.4251L12.2372 47.2547L13.1064 45.9749C13.2167 45.8127 13.2216 45.6013 13.1196 45.4338ZM15.7807 10.3899C15.7807 8.27514 17.5058 6.55444 19.6264 6.55444H48.2929C50.413 6.55444 52.1386 8.27514 52.1386 10.3899V11.9568H15.7807V10.3899ZM14.7807 14.9009V18.4734H11.5442C12.5192 17.1905 13.6005 15.9944 14.7807 14.9009ZM5.22453 19.4734H32.9594V27.0139H5.22453V19.4734ZM5.92326 35.0916C5.92326 32.6428 6.26121 30.2747 6.86497 28.0139H14.7807V35.6266L13.6274 34.8435C13.4291 34.7092 13.1635 34.7337 12.9931 34.9036L11.2377 36.6589C11.0678 36.8284 11.0429 37.095 11.1777 37.2937L12.1025 38.6546C11.8432 39.1253 11.6396 39.6155 11.495 40.1194L9.87638 40.429C9.64054 40.4744 9.47013 40.6804 9.47013 40.9202V43.4021C9.47013 43.6418 9.64054 43.8479 9.87638 43.8933L11.495 44.2029C11.6401 44.7107 11.8437 45.2029 12.1025 45.6731L11.1777 47.0349C11.0429 47.2332 11.0678 47.4998 11.2377 47.6692L12.9931 49.4246C13.1635 49.5945 13.4296 49.6199 13.6279 49.4846L14.7807 48.7012V55.2827C9.34288 50.2504 5.92326 43.0674 5.92326 35.0916ZM52.1386 59.7937C52.1386 61.9085 50.413 63.6292 48.2929 63.6292H19.6264C17.5058 63.6292 15.7807 61.9085 15.7807 59.7937V56.9675H52.1386V59.7937ZM53.1386 54.3085V42.6023H57.2128C57.4892 42.6023 57.7128 42.3787 57.7128 42.1023V29.0935C57.7128 28.8171 57.4892 28.5935 57.2128 28.5935H53.1386V15.8773C57.9907 20.8424 60.9951 27.619 60.9951 35.0916C60.995 42.5649 57.9913 49.343 53.1386 54.3085Z" stroke="black" stroke-width="0.8" mask="url(#path-1-outside-1_140_417)"/>
<path d="M33.9599 61.7341C34.753 61.7341 35.3959 61.0911 35.3959 60.2981C35.3959 59.505 34.753 58.8621 33.9599 58.8621C33.1668 58.8621 32.5239 59.505 32.5239 60.2981C32.5239 61.0911 33.1668 61.7341 33.9599 61.7341Z" fill="#1E120B"/>
<path d="M33.6937 8.75562H30.2421C29.9657 8.75562 29.7421 8.97925 29.7421 9.25562C29.7421 9.53199 29.9657 9.75562 30.2421 9.75562H33.6937C33.9701 9.75562 34.1937 9.53199 34.1937 9.25562C34.1937 8.97925 33.9701 8.75562 33.6937 8.75562ZM37.6776 8.75562H36.3417C36.0653 8.75562 35.8417 8.97925 35.8417 9.25562C35.8417 9.53199 36.0653 9.75562 36.3417 9.75562H37.6776C37.954 9.75562 38.1776 9.53199 38.1776 9.25562C38.1776 8.97925 37.954 8.75562 37.6776 8.75562ZM47.4637 32.2263C47.3094 32.1282 47.1141 32.1233 46.9549 32.2107C46.7958 32.2986 46.6962 32.4665 46.6962 32.6487V38.5461C46.6962 38.7283 46.7948 38.8962 46.9549 38.9841C47.114 39.0719 47.3091 39.0662 47.4628 38.969L52.1249 36.0251C52.4364 35.8286 52.4348 35.3761 52.1259 35.1799L47.4637 32.2263ZM47.6962 37.6389V33.5574L50.9227 35.6018L47.6962 37.6389ZM12.2103 22.1555C11.9584 22.0427 11.6625 22.158 11.5507 22.4099L11.0043 23.6428L10.3094 22.3728C10.1346 22.0515 9.60729 22.0515 9.43249 22.3728L8.69079 23.7288L7.9486 22.3728C7.81579 22.1296 7.51305 22.0398 7.27038 22.1741C7.0277 22.3064 6.93884 22.6101 7.07165 22.8523L8.25231 25.0105C8.42711 25.3318 8.95446 25.3318 9.12926 25.0105L9.87096 23.6545L10.6132 25.0105C10.701 25.1716 10.8695 25.2707 11.0516 25.2707C11.0585 25.2707 11.0653 25.2707 11.0726 25.2703C11.2626 25.2624 11.4315 25.1472 11.5087 24.9734L12.4647 22.8152C12.5765 22.5627 12.4628 22.2673 12.2103 22.1555ZM18.9872 22.1555C18.7352 22.0427 18.4393 22.158 18.3275 22.4099L17.7811 23.6428L17.0863 22.3728C16.9115 22.0515 16.3842 22.0515 16.2094 22.3728L15.4677 23.7288L14.7255 22.3728C14.5927 22.1296 14.2894 22.0398 14.0472 22.1741C13.8046 22.3064 13.7157 22.6101 13.8485 22.8523L15.0292 25.0105C15.204 25.3318 15.7313 25.3318 15.9061 25.0105L16.6478 23.6545L17.39 25.0105C17.4779 25.1716 17.6464 25.2707 17.8285 25.2707C17.8353 25.2707 17.8422 25.2707 17.8495 25.2703C18.0394 25.2624 18.2084 25.1472 18.2855 24.9734L19.2416 22.8152C19.3534 22.5627 19.2396 22.2673 18.9872 22.1555ZM25.764 22.1555C25.5121 22.0427 25.2162 22.158 25.1044 22.4099L24.558 23.6428L23.8631 22.3728C23.6883 22.0515 23.161 22.0515 22.9862 22.3728L22.2445 23.7288L21.5023 22.3728C21.37 22.1296 21.0668 22.0398 20.8241 22.1741C20.5814 22.3064 20.4926 22.6101 20.6254 22.8523L21.806 25.0105C21.9808 25.3318 22.5082 25.3318 22.683 25.0105L23.4247 23.6545L24.1669 25.0105C24.2548 25.1716 24.4232 25.2707 24.6053 25.2707C24.6122 25.2707 24.619 25.2707 24.6263 25.2703C24.8163 25.2624 24.9852 25.1472 25.0624 24.9734L26.0184 22.8152C26.1302 22.5627 26.0165 22.2673 25.764 22.1555ZM18.4955 45.9197C20.5663 45.9197 22.2509 44.2346 22.2509 42.1638C22.2509 40.093 20.5663 38.4084 18.4955 38.4084C16.4247 38.4084 14.7396 40.093 14.7396 42.1638C14.7396 44.2346 16.4247 45.9197 18.4955 45.9197ZM18.4955 39.4084C20.015 39.4084 21.2509 40.6443 21.2509 42.1638C21.2509 43.6833 20.015 44.9197 18.4955 44.9197C16.9759 44.9197 15.7396 43.6833 15.7396 42.1638C15.7396 40.6443 16.9759 39.4084 18.4955 39.4084ZM33.9598 3.37085H41.038C41.3143 3.37085 41.538 3.14722 41.538 2.87085C41.538 2.59448 41.3143 2.37085 41.038 2.37085H33.9598C33.6835 2.37085 33.4598 2.59448 33.4598 2.87085C33.4598 3.14722 33.6835 3.37085 33.9598 3.37085ZM29.3334 3.37085H31.1508C31.4271 3.37085 31.6508 3.14722 31.6508 2.87085C31.6508 2.59448 31.4271 2.37085 31.1508 2.37085H29.3334C29.057 2.37085 28.8334 2.59448 28.8334 2.87085C28.8334 3.14722 29.057 3.37085 29.3334 3.37085Z" fill="#295CA7"/>
</svg>
