<svg width="64" height="64" viewBox="0 0 64 64" fill="none" xmlns="http://www.w3.org/2000/svg">
<path opacity="0.1" d="M20.2496 25.7335L14.3524 38.8901C14.2884 39.0363 14.2062 39.1826 14.1239 39.3198L12.0393 38.3049C12.1307 38.2043 12.2039 38.0855 12.2587 37.9575L18.0736 24.9929C18.7502 25.2581 19.4359 25.5689 20.2496 25.7335Z" fill="black"/>
<path d="M51.7467 37.9713L43.8656 42.081L36.0256 30.6378C35.5566 29.953 34.6094 29.7994 33.9474 30.3013L30.9184 32.5999C29.3093 33.8204 27.1945 34.1477 25.2919 33.4703L24.811 33.2993C23.9653 32.9985 23.6882 31.9397 24.2779 31.2632L30.7648 23.8181C32.3054 22.0508 34.8645 21.5864 36.928 22.7L38.9705 23.8026C40.1463 24.4371 41.5259 24.577 42.805 24.1903L45.2434 23.4524L51.7403 37.9539C51.7431 37.9585 51.7431 37.9667 51.7467 37.9713Z" stroke="#1E120B" stroke-width="1.75" stroke-miterlimit="10" stroke-linecap="round" stroke-linejoin="round"/>
<path d="M27.1927 43.2118C26.901 43.3133 26.634 43.4952 26.4219 43.754C26.7264 43.3773 26.8535 42.9156 26.8068 42.4712C26.7648 42.0269 26.5444 41.5954 26.1723 41.29C25.419 40.6765 24.3182 40.7944 23.7092 41.5396C24.0137 41.1675 24.1371 40.7057 24.0942 40.2568C24.0475 39.8171 23.8318 39.3846 23.4551 39.0802C22.7063 38.4667 21.6055 38.5809 20.9956 39.3297C21.3001 38.9576 21.4235 38.4913 21.3806 38.047C21.3339 37.6027 21.1182 37.1711 20.7415 36.8657C19.9927 36.2559 18.8873 36.3702 18.2784 37.1199L15.819 40.1425L12.0393 38.3058C12.128 38.2043 12.2048 38.0854 12.2633 37.9547L18.0754 24.9892C19.1716 25.4207 20.3145 25.9583 21.9319 25.8486C22.5417 25.802 23.1214 25.5816 23.6544 25.2854C26.3552 23.7869 30.0288 24.6591 30.0288 24.6591L24.2761 31.2621C23.6882 31.9396 23.9625 32.9974 24.8091 33.2982L25.2919 33.4719C27.1031 34.1156 29.1099 33.8486 30.6889 32.7652" stroke="#1E120B" stroke-width="1.75" stroke-miterlimit="10" stroke-linecap="round" stroke-linejoin="round"/>
<path d="M20.9939 39.3307L18.1523 42.8187C17.5398 43.5703 16.4408 43.6827 15.6893 43.0702C15.3153 42.7657 15.0968 42.3342 15.0511 41.8907C15.0081 41.4446 15.1297 40.9847 15.4378 40.6071L18.2794 37.1191C18.8893 36.3703 19.991 36.2551 20.7425 36.8677C21.1165 37.1721 21.335 37.6037 21.3807 38.0471C21.4227 38.4933 21.2984 38.9559 20.9939 39.3307Z" stroke="#1E120B" stroke-width="1.75" stroke-miterlimit="10" stroke-linecap="round" stroke-linejoin="round"/>
<path d="M23.7083 41.5414L20.3145 45.7078C19.7019 46.4594 18.6029 46.5718 17.8514 45.9593C17.4774 45.6548 17.2589 45.2233 17.2132 44.7798C17.1702 44.3337 17.2918 43.8738 17.5999 43.4962L20.9938 39.3298C21.6036 38.581 22.7053 38.4658 23.4569 39.0784C23.8308 39.3828 24.0493 39.8144 24.095 40.2578C24.1371 40.704 24.0127 41.1675 23.7083 41.5414Z" stroke="#1E120B" stroke-width="1.75" stroke-miterlimit="10" stroke-linecap="round" stroke-linejoin="round"/>
<path d="M26.4229 43.7531L23.5813 47.2411C22.9687 47.9927 21.8698 48.1051 21.1182 47.4925C20.7443 47.1881 20.5258 46.7565 20.48 46.3131C20.4371 45.8669 20.5587 45.4071 20.8668 45.0295L23.7084 41.5415C24.3182 40.7927 25.4199 40.6775 26.1715 41.29C26.5454 41.5945 26.7639 42.026 26.8096 42.4695C26.8517 42.9156 26.7274 43.3783 26.4229 43.7531Z" stroke="#1E120B" stroke-width="1.75" stroke-miterlimit="10" stroke-linecap="round" stroke-linejoin="round"/>
<path d="M37.2691 39.414L40.1262 43.5676C40.7415 44.4627 41.9594 44.6876 42.8544 44.0723C43.2997 43.766 43.5831 43.3043 43.6736 42.8133C43.7614 42.3187 43.6682 41.7939 43.3591 41.344L40.502 37.1904M29.1374 45.9639L26.9002 48.7104C26.2876 49.462 25.1886 49.5744 24.4371 48.9619C24.0631 48.6574 23.8446 48.2259 23.7989 47.7824C23.7559 47.3363 23.8775 46.8764 24.1856 46.4988L26.4229 43.7523C27.0327 43.0035 28.1344 42.8883 28.886 43.5008C29.2599 43.8053 29.4784 44.2368 29.5242 44.6803C29.5662 45.1264 29.4419 45.59 29.1374 45.9639Z" stroke="#1E120B" stroke-width="1.75" stroke-miterlimit="10" stroke-linecap="round" stroke-linejoin="round"/>
<path d="M34.0361 41.6366L37.4492 46.5985C38.0645 47.4935 39.2823 47.7185 40.1774 47.1031C40.6226 46.7969 40.9061 46.3351 40.9966 45.8442C41.0844 45.3495 40.9911 44.8247 40.6821 44.3749L37.269 39.4131" stroke="#1E120B" stroke-width="1.75" stroke-miterlimit="10" stroke-linecap="round" stroke-linejoin="round"/>
<path d="M30.8032 43.86L33.6604 48.0136C34.2757 48.9087 35.4935 49.1336 36.3886 48.5183C36.8338 48.212 37.1173 47.7503 37.2078 47.2593C37.2956 46.7647 37.2023 46.2399 36.8933 45.7901L34.0361 41.6365" stroke="#1E120B" stroke-width="1.75" stroke-miterlimit="10" stroke-linecap="round" stroke-linejoin="round"/>
<path d="M30.8031 43.8593L33.0505 47.1315C33.3641 47.5804 33.4564 48.1052 33.3677 48.5998C33.2745 49.0908 32.9956 49.5525 32.5467 49.8615C31.6534 50.475 30.4347 50.251 29.8212 49.3532L28.2422 47.0629L29.1355 45.9621C29.4399 45.59 29.567 45.1237 29.525 44.6794C29.4783 44.235 29.258 43.8035 28.8859 43.4981M61.2589 35.4149L53.6639 38.6881C52.9298 39.0172 52.0685 38.689 51.7394 37.9548L45.0276 22.9843C44.6985 22.2501 45.0267 21.3889 45.7609 21.0597L61.2589 14.3818V35.4149ZM2.74463 35.2348L10.3396 38.6871C11.0738 39.0163 11.935 38.6881 12.2642 37.9539L18.9759 22.9834C19.3051 22.2492 18.9769 21.3879 18.2427 21.0588L2.74463 13.793V35.2348Z" stroke="#1E120B" stroke-width="1.75" stroke-miterlimit="10" stroke-linecap="round" stroke-linejoin="round"/>
<path d="M53.9622 33.8596L54.561 35.2347" stroke="#295CA7" stroke-width="1.75" stroke-miterlimit="10" stroke-linecap="round" stroke-linejoin="round"/>
<path d="M9.375 35.2347L9.97386 33.8596" stroke="#295CA7" stroke-width="1.75" stroke-miterlimit="10" stroke-linecap="round" stroke-linejoin="round"/>
<circle cx="24.6857" cy="20.1142" r="1.32857" stroke="#295CA7"/>
<circle cx="28.3428" cy="14.6286" r="0.664286" stroke="#295CA7" stroke-width="0.5"/>
<circle cx="31.0857" cy="17.3713" r="0.664286" stroke="#295CA7" stroke-width="0.5"/>
</svg>
