<svg width="64" height="64" viewBox="0 0 64 64" fill="none" xmlns="http://www.w3.org/2000/svg">
<path d="M58 61L61 54H55L58 61Z" fill="#2E3D4C"/>
<path d="M58.22 3H57.78C57.0427 3 56.3356 3.29289 55.8142 3.81424C55.2929 4.33559 55 5.0427 55 5.78V12H61V5.78C61 5.0427 60.7071 4.33559 60.1858 3.81424C59.6644 3.29289 58.9573 3 58.22 3Z" fill="#C9DFEB"/>
<path d="M9 27H14.185V32.185H9V27ZM9 38.407H14.185V43.592H9V38.407ZM9 49.815H14.185V55H9V49.815Z" fill="#295CA7"/>
<path d="M55 8H61V12H55V8Z" fill="#295CA7"/>
<path d="M58.22 2H57.78C56.7779 2.00132 55.8172 2.4 55.1086 3.1086C54.4 3.8172 54.0013 4.77789 54 5.78V54C54.0086 54.1345 54.0359 54.2671 54.081 54.394L57.081 61.394C57.1601 61.5717 57.289 61.7226 57.4521 61.8285C57.6152 61.9344 57.8055 61.9908 58 61.9908C58.1945 61.9908 58.3848 61.9344 58.5479 61.8285C58.711 61.7226 58.8399 61.5717 58.919 61.394L61.919 54.394C61.9641 54.2671 61.9914 54.1345 62 54V5.78C61.9987 4.77789 61.6 3.8172 60.8914 3.1086C60.1828 2.4 59.2221 2.00132 58.22 2ZM60 11H56V9H60V11ZM56 13H60V53H56V13ZM56 5.78C56.0008 5.30816 56.1886 4.85587 56.5222 4.52223C56.8559 4.18858 57.3082 4.00079 57.78 4H58.22C58.6918 4.00079 59.1441 4.18858 59.4778 4.52223C59.8114 4.85587 59.9992 5.30816 60 5.78V7H56V5.78ZM58 58.461L56.517 55H59.483L58 58.461Z" fill="#1E120B"/>
<path d="M14 15C14.5523 15 15 14.5523 15 14C15 13.4477 14.5523 13 14 13C13.4477 13 13 13.4477 13 14C13 14.5523 13.4477 15 14 15Z" fill="#1E120B"/>
<path d="M3 62H47.628C47.8932 62 48.1476 61.8946 48.3351 61.7071C48.5226 61.5196 48.628 61.2652 48.628 61V3C48.628 2.73478 48.5226 2.48043 48.3351 2.29289C48.1476 2.10536 47.8932 2 47.628 2C47.628 2 14.958 2.011 14.937 2.013C14.6958 2.02753 14.4677 2.12709 14.293 2.294L2.293 14.321C2.12639 14.4971 2.02693 14.7261 2.012 14.968L2 61C2 61.2652 2.10536 61.5196 2.29289 61.7071C2.48043 61.8946 2.73478 62 3 62ZM14 5.422V10.222C14 10.4872 14.1054 10.7416 14.2929 10.9291C14.4804 11.1166 14.7348 11.222 15 11.222C15.2652 11.222 15.5196 11.1166 15.7071 10.9291C15.8946 10.7416 16 10.4872 16 10.222V4.005H46.628V60H4V16.032H10.2C10.4659 16.032 10.7209 15.9264 10.9089 15.7384C11.0969 15.5504 11.2025 15.2954 11.2025 15.0295C11.2025 14.7636 11.0969 14.5086 10.9089 14.3206C10.7209 14.1326 10.4659 14.027 10.2 14.027H5.414L14 5.422Z" fill="#1E120B"/>
<path d="M14.186 26H9C8.73478 26 8.48043 26.1053 8.29289 26.2928C8.10536 26.4804 8 26.7347 8 27V32.185C8 32.4502 8.10536 32.7045 8.29289 32.8921C8.48043 33.0796 8.73478 33.185 9 33.185H14.186C14.4512 33.185 14.7056 33.0796 14.8931 32.8921C15.0806 32.7045 15.186 32.4502 15.186 32.185V27C15.186 26.7347 15.0806 26.4804 14.8931 26.2928C14.7056 26.1053 14.4512 26 14.186 26ZM13.186 31.185H10V28H13.186V31.185ZM41 27.037H20.333C20.0678 27.037 19.8134 27.1423 19.6259 27.3298C19.4384 27.5174 19.333 27.7717 19.333 28.037C19.333 28.3022 19.4384 28.5565 19.6259 28.7441C19.8134 28.9316 20.0678 29.037 20.333 29.037H41C41.2652 29.037 41.5196 28.9316 41.7071 28.7441C41.8946 28.5565 42 28.3022 42 28.037C42 27.7717 41.8946 27.5174 41.7071 27.3298C41.5196 27.1423 41.2652 27.037 41 27.037ZM41 30.148H20.333C20.0678 30.148 19.8134 30.2533 19.6259 30.4408C19.4384 30.6284 19.333 30.8827 19.333 31.148C19.333 31.4132 19.4384 31.6675 19.6259 31.8551C19.8134 32.0426 20.0678 32.148 20.333 32.148H41C41.2652 32.148 41.5196 32.0426 41.7071 31.8551C41.8946 31.6675 42 31.4132 42 31.148C42 30.8827 41.8946 30.6284 41.7071 30.4408C41.5196 30.2533 41.2652 30.148 41 30.148ZM14.186 37.407H9C8.73478 37.407 8.48043 37.5123 8.29289 37.6998C8.10536 37.8874 8 38.1417 8 38.407V43.593C8 43.8582 8.10536 44.1125 8.29289 44.3001C8.48043 44.4876 8.73478 44.593 9 44.593H14.186C14.4512 44.593 14.7056 44.4876 14.8931 44.3001C15.0806 44.1125 15.186 43.8582 15.186 43.593V38.407C15.186 38.1417 15.0806 37.8874 14.8931 37.6998C14.7056 37.5123 14.4512 37.407 14.186 37.407ZM13.186 42.593H10V39.407H13.186V42.593ZM41 38.444H20.333C20.0678 38.444 19.8134 38.5493 19.6259 38.7368C19.4384 38.9244 19.333 39.1787 19.333 39.444C19.333 39.7092 19.4384 39.9635 19.6259 40.1511C19.8134 40.3386 20.0678 40.444 20.333 40.444H41C41.2652 40.444 41.5196 40.3386 41.7071 40.1511C41.8946 39.9635 42 39.7092 42 39.444C42 39.1787 41.8946 38.9244 41.7071 38.7368C41.5196 38.5493 41.2652 38.444 41 38.444ZM41 41.556H20.333C20.0678 41.556 19.8134 41.6613 19.6259 41.8488C19.4384 42.0364 19.333 42.2907 19.333 42.556C19.333 42.8212 19.4384 43.0755 19.6259 43.2631C19.8134 43.4506 20.0678 43.556 20.333 43.556H41C41.2652 43.556 41.5196 43.4506 41.7071 43.2631C41.8946 43.0755 42 42.8212 42 42.556C42 42.2907 41.8946 42.0364 41.7071 41.8488C41.5196 41.6613 41.2652 41.556 41 41.556ZM14.186 48.815H9C8.73478 48.815 8.48043 48.9203 8.29289 49.1078C8.10536 49.2954 8 49.5497 8 49.815V55C8 55.2652 8.10536 55.5195 8.29289 55.7071C8.48043 55.8946 8.73478 56 9 56H14.186C14.4512 56 14.7056 55.8946 14.8931 55.7071C15.0806 55.5195 15.186 55.2652 15.186 55V49.815C15.186 49.5497 15.0806 49.2954 14.8931 49.1078C14.7056 48.9203 14.4512 48.815 14.186 48.815ZM13.186 54H10V50.815H13.186V54ZM41 49.852H20.333C20.0678 49.852 19.8134 49.9573 19.6259 50.1448C19.4384 50.3324 19.333 50.5867 19.333 50.852C19.333 51.1172 19.4384 51.3715 19.6259 51.5591C19.8134 51.7466 20.0678 51.852 20.333 51.852H41C41.2652 51.852 41.5196 51.7466 41.7071 51.5591C41.8946 51.3715 42 51.1172 42 50.852C42 50.5867 41.8946 50.3324 41.7071 50.1448C41.5196 49.9573 41.2652 49.852 41 49.852ZM41 52.963H20.333C20.0678 52.963 19.8134 53.0683 19.6259 53.2558C19.4384 53.4434 19.333 53.6977 19.333 53.963C19.333 54.2282 19.4384 54.4825 19.6259 54.6701C19.8134 54.8576 20.0678 54.963 20.333 54.963H41C41.2652 54.963 41.5196 54.8576 41.7071 54.6701C41.8946 54.4825 42 54.2282 42 53.963C42 53.6977 41.8946 53.4434 41.7071 53.2558C41.5196 53.0683 41.2652 52.963 41 52.963ZM23.605 9.21096H19C18.7348 9.21096 18.4804 9.31631 18.2929 9.50385C18.1054 9.69138 18 9.94574 18 10.211C18 10.4762 18.1054 10.7305 18.2929 10.9181C18.4804 11.1056 18.7348 11.211 19 11.211H20.3V17.055C20.3 17.3202 20.4054 17.5745 20.5929 17.7621C20.7804 17.9496 21.0348 18.055 21.3 18.055C21.5652 18.055 21.8196 17.9496 22.0071 17.7621C22.1946 17.5745 22.3 17.3202 22.3 17.055V11.211H23.6C23.8652 11.211 24.1196 11.1056 24.3071 10.9181C24.4946 10.7305 24.6 10.4762 24.6 10.211C24.6 9.94574 24.4946 9.69138 24.3071 9.50385C24.1196 9.31631 23.8652 9.21096 23.6 9.21096H23.605ZM43.85 9.21096H39.244C38.9788 9.21096 38.7244 9.31631 38.5369 9.50385C38.3494 9.69138 38.244 9.94574 38.244 10.211C38.244 10.4762 38.3494 10.7305 38.5369 10.9181C38.7244 11.1056 38.9788 11.211 39.244 11.211H40.544V17.055C40.544 17.3202 40.6494 17.5745 40.8369 17.7621C41.0244 17.9496 41.2788 18.055 41.544 18.055C41.8092 18.055 42.0636 17.9496 42.2511 17.7621C42.4386 17.5745 42.544 17.3202 42.544 17.055V11.211H43.844C44.1092 11.211 44.3636 11.1056 44.5511 10.9181C44.7386 10.7305 44.844 10.4762 44.844 10.211C44.844 9.94574 44.7386 9.69138 44.5511 9.50385C44.3636 9.31631 44.1092 9.21096 43.844 9.21096H43.85ZM29.664 11.179C29.9292 11.179 30.1836 11.0736 30.3711 10.8861C30.5586 10.6985 30.664 10.4442 30.664 10.179C30.664 9.91374 30.5586 9.65938 30.3711 9.47185C30.1836 9.28431 29.9292 9.17896 29.664 9.17896H26.755C26.4898 9.17896 26.2354 9.28431 26.0479 9.47185C25.8604 9.65938 25.755 9.91374 25.755 10.179V17.087C25.755 17.3522 25.8604 17.6065 26.0479 17.7941C26.2354 17.9816 26.4898 18.087 26.755 18.087H29.664C29.9292 18.087 30.1836 17.9816 30.3711 17.7941C30.5586 17.6065 30.664 17.3522 30.664 17.087C30.664 16.8217 30.5586 16.5674 30.3711 16.3798C30.1836 16.1923 29.9292 16.087 29.664 16.087H27.755V14.633H29.664C29.9292 14.633 30.1836 14.5276 30.3711 14.3401C30.5586 14.1525 30.664 13.8982 30.664 13.633C30.664 13.3677 30.5586 13.1134 30.3711 12.9258C30.1836 12.7383 29.9292 12.633 29.664 12.633H27.755V11.179H29.664ZM34.543 12.666C34.4148 12.666 34.2889 12.6323 34.178 12.5681C34.0671 12.5039 33.9751 12.4116 33.9112 12.3005C33.8474 12.1894 33.8141 12.0634 33.8145 11.9352C33.815 11.8071 33.8493 11.6813 33.914 11.5707C33.9786 11.46 34.0714 11.3684 34.1828 11.3051C34.2942 11.2417 34.4203 11.2089 34.5485 11.21C34.6766 11.211 34.8022 11.2459 34.9126 11.311C35.0229 11.3762 35.1142 11.4693 35.177 11.581C35.2398 11.699 35.3256 11.8033 35.4293 11.8876C35.5331 11.972 35.6527 12.0346 35.7811 12.0719C35.9095 12.1092 36.0441 12.1204 36.1769 12.1047C36.3097 12.0891 36.438 12.047 36.5542 11.9809C36.6704 11.9149 36.7722 11.8261 36.8536 11.72C36.935 11.6139 36.9942 11.4926 37.0278 11.3632C37.0615 11.2338 37.0688 11.0989 37.0494 10.9666C37.0301 10.8343 36.9843 10.7073 36.915 10.593C36.6783 10.1759 36.3358 9.82865 35.9221 9.5862C35.5084 9.34374 35.0381 9.21467 34.5585 9.212C34.079 9.20932 33.6073 9.33314 33.1909 9.57097C32.7745 9.80879 32.4281 10.1522 32.1868 10.5666C31.9455 10.981 31.8177 11.4517 31.8163 11.9312C31.815 12.4107 31.9401 12.8821 32.179 13.2979C32.418 13.7136 32.7624 14.059 33.1774 14.2992C33.5924 14.5394 34.0635 14.6659 34.543 14.666C34.6687 14.6653 34.7924 14.6973 34.9021 14.7587C35.0117 14.8201 35.1036 14.909 35.1687 15.0165C35.2338 15.124 35.2699 15.2466 35.2734 15.3723C35.277 15.4979 35.248 15.6223 35.1891 15.7334C35.1302 15.8445 35.0436 15.9384 34.9376 16.006C34.8316 16.0735 34.7099 16.1125 34.5843 16.119C34.4588 16.1255 34.3337 16.0993 34.2213 16.0431C34.1089 15.9868 34.013 15.9023 33.943 15.798C33.7911 15.5866 33.5628 15.4428 33.3065 15.3971C33.0503 15.3515 32.7864 15.4075 32.5708 15.5533C32.3552 15.6991 32.2049 15.9232 32.1519 16.178C32.099 16.4328 32.1474 16.6983 32.287 16.918C32.5502 17.3081 32.9098 17.6235 33.331 17.8335C33.7522 18.0434 34.2205 18.1408 34.6905 18.1162C35.1604 18.0916 35.616 17.9458 36.0129 17.6929C36.4098 17.4401 36.7345 17.0888 36.9555 16.6733C37.1764 16.2578 37.2861 15.7921 37.2738 15.3217C37.2615 14.8513 37.1277 14.392 36.8853 13.9886C36.643 13.5852 36.3003 13.2514 35.8908 13.0196C35.4812 12.7878 35.0186 12.666 34.548 12.666H34.543Z" fill="#1E120B"/>
</svg>
