<svg width="64" height="64" viewBox="0 0 64 64" fill="none" xmlns="http://www.w3.org/2000/svg">
<g clip-path="url(#clip0_140_453)">
<path d="M60.8359 2.10498C60.8359 1.83976 60.7306 1.58541 60.5431 1.39787C60.3555 1.21034 60.1012 1.10498 59.8359 1.10498H2.54395C2.27873 1.10498 2.02437 1.21034 1.83684 1.39787C1.6493 1.58541 1.54395 1.83976 1.54395 2.10498V47.4C1.54395 47.6652 1.6493 47.9195 1.83684 48.1071C2.02437 48.2946 2.27873 48.4 2.54395 48.4H46.6359L46.7979 59.45C46.8129 60.3577 47.1838 61.2233 47.8308 61.8602C48.4778 62.4971 49.3491 62.8543 50.2569 62.855H50.3079H50.5459C50.9998 62.8483 51.4479 62.7523 51.8647 62.5725C52.2814 62.3926 52.6587 62.1325 52.9749 61.8068C53.2911 61.4811 53.54 61.0964 53.7075 60.6745C53.875 60.2526 53.9577 59.8018 53.9509 59.348L53.7899 48.4H59.8359C60.1012 48.4 60.3555 48.2946 60.5431 48.1071C60.7306 47.9195 60.8359 47.6652 60.8359 47.4V37.841C62.9679 35.2853 64.1356 32.0626 64.1356 28.7345C64.1356 25.4063 62.9679 22.1836 60.8359 19.628V2.10498ZM58.8359 3.10498V10.4H3.54395V3.10498H58.8359ZM3.54395 12.4H58.8359V17.66C57.0884 16.2467 55.0311 15.2669 52.8324 14.8009C50.6337 14.3349 48.3559 14.3958 46.1852 14.9787C44.0145 15.5615 42.0126 16.6497 40.343 18.1544C38.6734 19.6591 37.3836 21.5376 36.579 23.6362C35.7744 25.7348 35.4778 27.994 35.7135 30.2292C35.9492 32.4644 36.7105 34.612 37.9352 36.4967C39.1599 38.3813 40.8131 39.9493 42.7598 41.0727C44.7065 42.196 46.8914 42.8427 49.1359 42.96L49.1769 45.724L47.6009 45.747C47.3972 45.7481 47.1988 45.8127 47.0335 45.9319C46.8683 46.0512 46.7443 46.219 46.6789 46.412H3.54395V12.4ZM48.6259 47.724L51.7779 47.678L51.8009 49.213L48.6489 49.26L48.6259 47.724ZM51.5399 60.414C51.407 60.5514 51.2482 60.6612 51.0726 60.7369C50.897 60.8126 50.7081 60.8527 50.5169 60.855H50.2779H50.2569C49.8752 60.8543 49.509 60.7041 49.2366 60.4366C48.9643 60.1691 48.8075 59.8056 48.7999 59.424L48.6799 51.26L51.8329 51.213L51.9529 59.377C51.9564 59.5686 51.9217 59.759 51.8508 59.937C51.7799 60.1151 51.6742 60.2772 51.5399 60.414ZM53.7109 46.4C53.6567 46.1895 53.5345 46.0028 53.3632 45.869C53.192 45.7352 52.9813 45.6617 52.7639 45.66H52.7489L51.1729 45.683L51.1319 42.906C53.9484 42.6555 56.6276 41.5769 58.8319 39.806V46.406L53.7109 46.4ZM60.6609 34.548C59.5093 36.6819 57.7505 38.4263 55.6072 39.5605C53.4639 40.6946 51.0323 41.1675 48.6202 40.9194C46.208 40.6712 43.9236 39.7132 42.0561 38.1664C40.1886 36.6196 38.8219 34.5537 38.1288 32.2299C37.4357 29.9062 37.4475 27.4291 38.1626 25.112C38.8778 22.795 40.2641 20.7421 42.1462 19.2132C44.0284 17.6842 46.3217 16.7479 48.7361 16.5227C51.1505 16.2975 53.5775 16.7935 55.7099 17.948C58.5663 19.4953 60.6919 22.1128 61.6201 25.2258C62.5484 28.3389 62.2034 31.693 60.6609 34.552V34.548Z" fill="black"/>
<path d="M54.4181 5.74902H35.1001V7.74902H54.4181V5.74902Z" fill="black"/>
<path d="M11.719 5.74902H7.23096V7.74902H11.719V5.74902Z" fill="black"/>
<path d="M18.7121 5.74902H14.2251V7.74902H18.7121V5.74902Z" fill="black"/>
<path d="M54.684 19.8549C52.9291 18.9066 50.9325 18.5 48.9465 18.6864C46.9606 18.8728 45.0745 19.6439 43.5267 20.9022C41.979 22.1605 40.8391 23.8494 40.2512 25.7555C39.6633 27.6616 39.6537 29.6992 40.2238 31.6107C40.7938 33.5222 41.9179 35.2217 43.4538 36.4945C44.9897 37.7672 46.8685 38.5559 48.8526 38.7609C50.8367 38.9659 52.8371 38.5779 54.6008 37.6461C56.3644 36.7143 57.8122 35.2805 58.761 33.5259C60.0299 31.1717 60.3132 28.4103 59.5489 25.8475C58.7846 23.2847 57.0351 21.1296 54.684 19.8549ZM57 32.5749C56.1102 34.2201 54.6775 35.5058 52.946 36.2132C51.2146 36.9205 49.2914 37.0056 47.5042 36.454C45.717 35.9024 44.1763 34.7483 43.1447 33.1881C42.113 31.628 41.6542 29.7585 41.8463 27.898C42.0385 26.0375 42.8697 24.3012 44.1985 22.9849C45.5272 21.6685 47.2713 20.8536 49.1335 20.6789C50.9957 20.5043 52.8608 20.9806 54.4112 22.0269C55.9616 23.0732 57.1012 24.6246 57.636 26.4169C57.9426 27.4344 58.0442 28.5026 57.9351 29.5596C57.8259 30.6167 57.5081 31.6416 57 32.5749ZM32.16 16.4099H24.36C24.0948 16.4099 23.8404 16.5153 23.6529 16.7028C23.4654 16.8903 23.36 17.1447 23.36 17.4099V25.8929H17.56V21.7199C17.56 21.4547 17.4547 21.2003 17.2671 21.0128C17.0796 20.8253 16.8252 20.7199 16.56 20.7199H8.76001C8.49479 20.7199 8.24044 20.8253 8.0529 21.0128C7.86537 21.2003 7.76001 21.4547 7.76001 21.7199V38.9609C7.76001 39.2261 7.86537 39.4805 8.0529 39.668C8.24044 39.8556 8.49479 39.9609 8.76001 39.9609H32.16C32.4252 39.9609 32.6796 39.8556 32.8671 39.668C33.0547 39.4805 33.16 39.2261 33.16 38.9609V17.4099C33.16 17.1447 33.0547 16.8903 32.8671 16.7028C32.6796 16.5153 32.4252 16.4099 32.16 16.4099ZM9.74601 22.7199H15.551V37.9609H9.75101L9.74601 22.7199ZM17.546 27.8929H23.346V37.9609H17.546V27.8929ZM31.16 37.9609H25.36V18.4099H31.16V37.9609Z" fill="#295CA7"/>
</g>
<defs>
<clipPath id="clip0_140_453">
<rect width="64" height="64" fill="white"/>
</clipPath>
</defs>
</svg>
