<svg width="64" height="64" viewBox="0 0 64 64" fill="none" xmlns="http://www.w3.org/2000/svg">
<path d="M7.00007 19.9976C6.73486 19.9976 6.4805 20.103 6.29297 20.2905C6.10543 20.4781 6.00007 20.7323 6.00007 20.9976V31.9976C6.00007 32.2628 6.10543 32.5173 6.29297 32.7048C6.4805 32.8924 6.73486 32.9976 7.00007 32.9976C7.26529 32.9976 7.51964 32.8924 7.70718 32.7048C7.89472 32.5173 8.00007 32.2628 8.00007 31.9976V21.9976H21.9381C22.2033 21.9976 22.4576 21.8924 22.6452 21.7048C22.8327 21.5173 22.9381 21.2628 22.9381 20.9976C22.9381 20.7323 22.8327 20.4781 22.6452 20.2905C22.4576 20.103 22.2033 19.9976 21.9381 19.9976H7.00007ZM40.1921 19.9976C39.9269 19.9976 39.6725 20.103 39.485 20.2905C39.2974 20.4781 39.1921 20.7323 39.1921 20.9976C39.1921 21.2628 39.2974 21.5173 39.485 21.7048C39.6725 21.8924 39.9269 21.9976 40.1921 21.9976H54.0001V49.9976H8.00007V41.9976C8.00007 41.7323 7.89472 41.4781 7.70718 41.2905C7.51964 41.103 7.26529 40.9976 7.00007 40.9976C6.73486 40.9976 6.4805 41.103 6.29297 41.2905C6.10543 41.4781 6.00007 41.7323 6.00007 41.9976V50.9976C6.00007 51.2628 6.10543 51.5173 6.29297 51.7048C6.4805 51.8924 6.73486 51.9976 7.00007 51.9976H55.0001C55.2653 51.9976 55.5196 51.8924 55.7072 51.7048C55.8947 51.5173 56.0001 51.2628 56.0001 50.9976V20.9976C56.0001 20.7323 55.8947 20.4781 55.7072 20.2905C55.5196 20.103 55.2653 19.9976 55.0001 19.9976H40.1921ZM6.98407 34.9856C6.71955 34.9898 6.46747 35.0987 6.28304 35.2883C6.09862 35.478 5.99687 35.733 6.00007 35.9976V37.9976C6.00007 38.2628 6.10543 38.5173 6.29297 38.7048C6.4805 38.8924 6.73486 38.9976 7.00007 38.9976C7.26529 38.9976 7.51964 38.8924 7.70718 38.7048C7.89472 38.5173 8.00007 38.2628 8.00007 37.9976V35.9976C8.0017 35.8639 7.97649 35.7312 7.92596 35.6074C7.87542 35.4836 7.80058 35.3714 7.70586 35.2771C7.61113 35.1827 7.49845 35.1082 7.37448 35.0581C7.2505 35.0081 7.11775 34.9834 6.98407 34.9856Z" fill="black"/>
<path d="M30.9999 9.99756C25.4939 9.99756 21.0239 14.5356 21.0239 20.0876C21.0239 23.1436 22.5519 25.2096 23.8779 27.2256C25.2059 29.2396 26.4059 31.2375 26.4059 34.6235V38.9937C26.4059 39.2599 26.5117 39.5153 26.7 39.7036C26.8883 39.8919 27.1436 39.9976 27.4099 39.9976H34.5899C34.8562 39.9976 35.1116 39.8919 35.2999 39.7036C35.4881 39.5153 35.5939 39.2599 35.5939 38.9937V34.6235C35.5939 31.2375 36.7939 29.2396 38.1219 27.2236C39.4479 25.2096 40.9759 23.1436 40.9759 20.0876C40.9759 14.5356 36.5059 9.99756 30.9999 9.99756ZM30.9999 12.0095C35.4059 12.0095 38.9679 15.6096 38.9679 20.0896C38.9679 22.4816 37.8079 24.0476 36.4419 26.1196C35.2159 27.9796 34.0319 30.3677 33.7739 33.6157H32.0039V28.2017C32.0039 27.9354 31.8981 27.68 31.7099 27.4917C31.5216 27.3034 31.2662 27.1978 30.9999 27.1978C30.7336 27.1978 30.4783 27.3034 30.29 27.4917C30.1017 27.68 29.9959 27.9354 29.9959 28.2017V33.6157H28.2259C27.9659 30.3677 26.7839 27.9796 25.5579 26.1196C24.1939 24.0476 23.0319 22.4816 23.0319 20.0876C23.0319 15.6076 26.5919 12.0095 30.9999 12.0095ZM28.4139 35.6277H30.8399C30.9472 35.6452 31.0566 35.6452 31.1639 35.6277H33.5859V37.9897H28.4139V35.6277Z" fill="#295CA7"/>
<path d="M3 49.9976C2.73478 49.9976 2.48043 50.103 2.29289 50.2905C2.10536 50.4781 2 50.7323 2 50.9976C2 53.8156 4.52 55.9976 7.48 55.9976H54.52C57.48 55.9976 60 53.8156 60 50.9976C60 50.7323 59.8946 50.4781 59.7071 50.2905C59.5196 50.103 59.2652 49.9976 59 49.9976H3ZM4.468 51.9976H57.532C57.038 53.0976 56.046 53.9976 54.52 53.9976H7.48C5.954 53.9976 4.962 53.0976 4.468 51.9976Z" fill="black"/>
<path fill-rule="evenodd" clip-rule="evenodd" d="M28.376 41.9976C28.1108 41.9976 27.8564 42.103 27.6689 42.2905C27.4813 42.4781 27.376 42.7323 27.376 42.9976C27.376 43.2628 27.4813 43.5173 27.6689 43.7048C27.8564 43.8924 28.1108 43.9976 28.376 43.9976H33.624C33.8892 43.9976 34.1435 43.8924 34.3311 43.7048C34.5186 43.5173 34.624 43.2628 34.624 42.9976C34.624 42.7323 34.5186 42.4781 34.3311 42.2905C34.1435 42.103 33.8892 41.9976 33.624 41.9976H28.376Z" fill="black"/>
<path d="M31.0998 6.00171L29.9198 6.04175H29.8318L29.1918 6.1178L28.1998 6.2417L28.4498 8.22766L29.4418 8.10364L30.0318 8.03186L31.1098 7.99182H31.2538L32.2538 8.04578L32.3638 6.0498L31.3678 5.98975H31.1438L31.0998 6.00171ZM33.9638 8.34973L34.9138 8.66565L35.2698 8.78577L36.6138 9.43982L37.5118 9.87976L38.3858 8.07971L37.4878 7.63977L36.0938 6.95972L36.0338 6.93176L35.9738 6.91174L35.5458 6.7677L34.5978 6.45178L33.9638 8.34973ZM25.0898 7.36169L24.1318 7.80164L24.0538 7.83777L23.9838 7.88782L23.2038 8.42786L22.3838 8.99573L23.5198 10.6417L24.3438 10.0717L25.0458 9.58167L25.9258 9.17566L26.8358 8.75769L25.9958 6.94177L25.0898 7.36169ZM38.8198 10.9017L39.5198 11.6158L40.2778 12.3937L40.6958 13.0057L41.2618 13.8297L42.9098 12.6979L42.3478 11.8737L41.8778 11.1937L41.8278 11.1198L41.7678 11.0616L40.9478 10.2218L40.2498 9.50183L38.8198 10.9017ZM20.0318 11.3536L18.9958 12.7997L18.9558 12.8536L18.9258 12.9117L18.8198 13.1078L18.3518 13.9899L20.1118 14.9298L20.5858 14.0497L20.6678 13.8998L21.6558 12.5177L22.2378 11.7057L20.6138 10.5419L20.0318 11.3536ZM42.1058 15.3038L42.3938 16.2596L42.6218 17.0057L42.6258 17.0297L42.8458 18.1117L43.0498 19.0917L45.0098 18.6918L44.8098 17.7137L44.5818 16.6036L44.5738 16.5597L44.5578 16.5197L44.3078 15.6857L44.0198 14.7257L42.1058 15.3038ZM17.3198 17.0839L17.2298 17.4757L17.0078 18.4479L18.9598 18.8937L19.1798 17.9156L19.2698 17.5258L19.4918 16.5497L17.5398 16.1078L17.3198 17.0839Z" fill="#295CA7"/>
<path fill-rule="evenodd" clip-rule="evenodd" d="M28.376 41.9976C28.1108 41.9976 27.8564 42.103 27.6689 42.2905C27.4813 42.4781 27.376 42.7323 27.376 42.9976C27.376 43.2628 27.4813 43.5173 27.6689 43.7048C27.8564 43.8924 28.1108 43.9976 28.376 43.9976H33.624C33.8892 43.9976 34.1435 43.8924 34.3311 43.7048C34.5186 43.5173 34.624 43.2628 34.624 42.9976C34.624 42.7323 34.5186 42.4781 34.3311 42.2905C34.1435 42.103 33.8892 41.9976 33.624 41.9976H28.376Z" fill="#295CA7"/>
</svg>
